<svg width="120" height="100" viewBox="0 0 120 100" fill="none" xmlns="http://www.w3.org/2000/svg">
<rect x="40.625" y="7.5" width="66.875" height="57.5609" rx="8.5" fill="#FE6E27" stroke="#FBFAF9" stroke-width="5"/>
<path d="M61.5 42.4795L73.4451 36.9029L85.3901 42.4795V9.66872C85.3901 9.49581 85.3105 9.32289 85.1512 9.14997C84.9919 8.97706 84.8327 8.8906 84.6734 8.8906H62.2167C62.0575 8.8906 61.8982 8.97706 61.7389 9.14997C61.5796 9.32289 61.5 9.49581 61.5 9.66872V42.4795ZM57.9165 48.445V9.66872C57.9165 8.37185 58.3346 7.26952 59.1707 6.36171C60.0069 5.4539 61.0222 5 62.2167 5H84.6734C85.8679 5 86.8832 5.4539 87.7194 6.36171C88.5555 7.26952 88.9736 8.37185 88.9736 9.66872V48.445L73.4451 41.1826L57.9165 48.445ZM85.3901 8.8906H61.5C61.5 8.8906 61.5796 8.8906 61.7389 8.8906C61.8982 8.8906 62.0575 8.8906 62.2167 8.8906H84.6734C84.8327 8.8906 84.9919 8.8906 85.1512 8.8906C85.3105 8.8906 85.3901 8.8906 85.3901 8.8906Z" fill="#FBFAF9"/>
<rect x="13" y="25.3402" width="78.375" height="67.441" rx="8" stroke="#242C31" stroke-width="6"/>
<path d="M38.1652 68.3779L52.1877 61.8315L66.2101 68.3779V29.8609C66.2101 29.6579 66.1166 29.455 65.9297 29.252C65.7427 29.049 65.5557 28.9475 65.3688 28.9475H39.0066C38.8196 28.9475 38.6326 29.049 38.4457 29.252C38.2587 29.455 38.1652 29.6579 38.1652 29.8609V68.3779ZM33.9585 75.381V29.8609C33.9585 28.3385 34.4493 27.0445 35.4309 25.9788C36.4124 24.9131 37.6043 24.3803 39.0066 24.3803H65.3688C66.771 24.3803 67.9629 24.9131 68.9445 25.9788C69.926 27.0445 70.4168 28.3385 70.4168 29.8609V75.381L52.1877 66.8555L33.9585 75.381ZM66.2101 28.9475H38.1652C38.1652 28.9475 38.2587 28.9475 38.4457 28.9475C38.6326 28.9475 38.8196 28.9475 39.0066 28.9475H65.3688C65.5557 28.9475 65.7427 28.9475 65.9297 28.9475C66.1166 28.9475 66.2101 28.9475 66.2101 28.9475Z" fill="#242C31"/>
</svg>
