<svg width="120" height="100" viewBox="0 0 120 100" fill="none" xmlns="http://www.w3.org/2000/svg">
<path d="M45.357 61C43.3204 61 41.5892 60.3 40.1636 58.9C38.7379 57.5 38.0251 55.8 38.0251 53.8V12.3C38.0251 10.2333 38.7379 8.5 40.1636 7.1C41.5892 5.7 43.3204 5 45.357 5H108.086C110.122 5 111.853 5.7 113.279 7.1C114.705 8.5 115.418 10.2333 115.418 12.3V53.8C115.418 55.8 114.705 57.5 113.279 58.9C111.853 60.3 110.122 61 108.086 61H45.357ZM45.357 55H108.086C108.357 55 108.629 54.884 108.9 54.652C109.172 54.4173 109.308 54.1333 109.308 53.8V12.3C109.308 11.9667 109.172 11.6667 108.9 11.4C108.629 11.1333 108.357 11 108.086 11H45.357C45.0854 11 44.8139 11.1333 44.5423 11.4C44.2708 11.6667 44.135 11.9667 44.135 12.3V53.8C44.135 54.1333 44.2708 54.4173 44.5423 54.652C44.8139 54.884 45.0854 55 45.357 55ZM36.4976 71C35.6829 71 34.9701 70.7173 34.3591 70.152C33.7481 69.584 33.4426 68.8667 33.4426 68C33.4426 67.1333 33.7481 66.4173 34.3591 65.852C34.9701 65.284 35.6829 65 36.4976 65H116.945C117.76 65 118.473 65.284 119.084 65.852C119.695 66.4173 120 67.1333 120 68C120 68.8667 119.695 69.584 119.084 70.152C118.473 70.7173 117.76 71 116.945 71H36.4976Z" fill="#FE6E27"/>
<rect x="43.4297" y="8.28506" width="68.2472" height="47.6335" fill="#FE6E27"/>
<path d="M57.9589 46.1529L55.4756 43.7871L71.3134 28.3558L80.1429 36.9586L95.6496 19.7529L97.9674 22.0112L80.1429 41.7977L71.3134 33.1949L57.9589 46.1529Z" fill="#FBFAF9"/>
<path d="M15.3443 82.1212C12.7213 82.1212 10.4918 81.2197 8.65574 79.4167C6.81967 77.6136 5.90164 75.4242 5.90164 72.8485V19.4015C5.90164 16.7399 6.81967 14.5076 8.65574 12.7045C10.4918 10.9015 12.7213 10 15.3443 10H96.1312C98.7541 10 100.984 10.9015 102.82 12.7045C104.656 14.5076 105.574 16.7399 105.574 19.4015V72.8485C105.574 75.4242 104.656 77.6136 102.82 79.4167C100.984 81.2197 98.7541 82.1212 96.1312 82.1212H15.3443ZM15.3443 74.3939H96.1312C96.4809 74.3939 96.8306 74.2445 97.1803 73.9458C97.5301 73.6435 97.7049 73.2778 97.7049 72.8485V19.4015C97.7049 18.9722 97.5301 18.5859 97.1803 18.2424C96.8306 17.899 96.4809 17.7273 96.1312 17.7273H15.3443C14.9945 17.7273 14.6448 17.899 14.2951 18.2424C13.9454 18.5859 13.7705 18.9722 13.7705 19.4015V72.8485C13.7705 73.2778 13.9454 73.6435 14.2951 73.9458C14.6448 74.2445 14.9945 74.3939 15.3443 74.3939ZM3.93443 95C2.88525 95 1.96721 94.636 1.18033 93.9079C0.393443 93.1764 0 92.2525 0 91.1364C0 90.0202 0.393443 89.0981 1.18033 88.37C1.96721 87.6385 2.88525 87.2727 3.93443 87.2727H107.541C108.59 87.2727 109.508 87.6385 110.295 88.37C111.082 89.0981 111.475 90.0202 111.475 91.1364C111.475 92.2525 111.082 93.1764 110.295 93.9079C109.508 94.636 108.59 95 107.541 95H3.93443Z" fill="#242C31"/>
<path d="M31.5737 63L28.3755 59.9532L48.7727 40.0794L60.144 51.1589L80.1148 29L83.0998 31.9084L60.144 57.391L48.7727 46.3116L31.5737 63Z" fill="#242C31"/>
</svg>
