<svg width="120" height="100" viewBox="0 0 120 100" fill="none" xmlns="http://www.w3.org/2000/svg">
<path d="M110.952 61.7857V24.4279C110.952 23.3127 110.548 22.3648 109.739 21.5842C108.93 20.8036 107.947 20.4133 106.792 20.4133H71.1975C70.0418 20.4133 69.0595 20.8036 68.2505 21.5842C67.4416 22.3648 67.0371 23.3127 67.0371 24.4279V49.8535C67.0371 50.9687 67.4416 51.9166 68.2505 52.6972C69.0595 53.4778 70.0418 53.8681 71.1975 53.8681H102.747L110.952 61.7857ZM107.485 53.7008L104.192 50.5226H71.1975C71.0048 50.5226 70.8407 50.4572 70.7051 50.3263C70.5711 50.197 70.5041 50.0394 70.5041 49.8535V24.4279C70.5041 24.242 70.5711 24.0836 70.7051 23.9528C70.8407 23.8234 71.0048 23.7588 71.1975 23.7588H106.792C106.984 23.7588 107.148 23.8234 107.282 23.9528C107.417 24.0836 107.485 24.242 107.485 24.4279V53.7008ZM107.485 24.4279V49.8535C107.485 50.0394 107.485 50.197 107.485 50.3263C107.485 50.4572 107.485 50.5226 107.485 50.5226V53.7008V24.4279Z" fill="#FE6E27"/>
<path d="M108.418 22.8469H69.5705V52.051L90.2613 51.2398L108.418 54.0791V22.8469Z" fill="#FE6E27"/>
<path d="M45.0798 50.4286V13.0707C45.0798 11.9556 45.4843 11.0077 46.2933 10.2271C47.1022 9.44644 48.0845 9.05614 49.2402 9.05614H84.8345C85.9902 9.05614 86.9725 9.44644 87.7815 10.2271C88.5904 11.0077 88.9949 11.9556 88.9949 13.0707V38.4964C88.9949 39.6115 88.5904 40.5594 87.7815 41.34C86.9725 42.1206 85.9902 42.5109 84.8345 42.5109H53.285L45.0798 50.4286ZM48.5468 42.3437L51.8404 39.1655H84.8345C85.0271 39.1655 85.1912 39.1 85.3268 38.9692C85.4609 38.8398 85.5279 38.6822 85.5279 38.4964V13.0707C85.5279 12.8849 85.4609 12.7265 85.3268 12.5957C85.1912 12.4663 85.0271 12.4016 84.8345 12.4016H49.2402C49.0476 12.4016 48.8843 12.4663 48.7502 12.5957C48.6146 12.7265 48.5468 12.8849 48.5468 13.0707V42.3437ZM48.5468 13.0707V38.4964C48.5468 38.6822 48.5468 38.8398 48.5468 38.9692C48.5468 39.1 48.5468 39.1655 48.5468 39.1655V42.3437V13.0707Z" fill="#FBFAF9"/>
<path d="M47.6133 11.4898H86.4612V40.6939L65.7705 39.8827L47.6133 42.7219V11.4898Z" fill="#FBFAF9"/>
<path d="M40.8572 46.3724V9.01458C40.8572 7.89942 41.2617 6.95153 42.0706 6.17092C42.8796 5.39031 43.8619 5 45.0176 5H80.6119C81.7675 5 82.7498 5.39031 83.5588 6.17092C84.3678 6.95153 84.7722 7.89942 84.7722 9.01458V34.4402C84.7722 35.5554 84.3678 36.5033 83.5588 37.2839C82.7498 38.0645 81.7675 38.4548 80.6119 38.4548H49.0624L40.8572 46.3724ZM44.3242 38.2875L47.6178 35.1093H80.6119C80.8045 35.1093 80.9686 35.0439 81.1042 34.9131C81.2382 34.7837 81.3053 34.6261 81.3053 34.4402V9.01458C81.3053 8.82872 81.2382 8.67036 81.1042 8.53952C80.9686 8.41016 80.8045 8.34548 80.6119 8.34548H45.0176C44.8249 8.34548 44.6616 8.41016 44.5276 8.53952C44.392 8.67036 44.3242 8.82872 44.3242 9.01458V38.2875ZM44.3242 9.01458V34.4402C44.3242 34.6261 44.3242 34.7837 44.3242 34.9131C44.3242 35.0439 44.3242 35.1093 44.3242 35.1093V38.2875V9.01458Z" fill="#FE6E27"/>
<path d="M43.3909 7.43366H82.2388V36.6377L61.5481 35.8265L43.3909 38.6658V7.43366Z" fill="#FE6E27"/>
<path d="M14.5715 67.1429V17.8023C14.5715 16.3294 15.0961 15.0775 16.1452 14.0465C17.1943 13.0155 18.4683 12.5 19.967 12.5H66.1284C67.6272 12.5 68.9011 13.0155 69.9502 14.0465C70.9994 15.0775 71.5239 16.3294 71.5239 17.8023V51.3833C71.5239 52.8562 70.9994 54.1081 69.9502 55.1391C68.9011 56.1701 67.6272 56.6856 66.1284 56.6856H25.2126L14.5715 67.1429ZM19.0678 56.4647L23.3392 52.267H66.1284C66.3782 52.267 66.591 52.1806 66.7669 52.0078C66.9407 51.837 67.0277 51.6288 67.0277 51.3833V17.8023C67.0277 17.5568 66.9407 17.3477 66.7669 17.1748C66.591 17.004 66.3782 16.9186 66.1284 16.9186H19.967C19.7172 16.9186 19.5054 17.004 19.3316 17.1748C19.1557 17.3477 19.0678 17.5568 19.0678 17.8023V56.4647ZM19.0678 17.8023V51.3833C19.0678 51.6288 19.0678 51.837 19.0678 52.0078C19.0678 52.1806 19.0678 52.267 19.0678 52.267V56.4647V17.8023Z" fill="#242C31"/>
<path d="M105.476 87.5V38.1594C105.476 36.6866 104.952 35.4346 103.902 34.4036C102.853 33.3726 101.579 32.8571 100.081 32.8571H53.9192C52.4204 32.8571 51.1465 33.3726 50.0974 34.4036C49.0483 35.4346 48.5237 36.6866 48.5237 38.1594V71.7405C48.5237 73.2133 49.0483 74.4652 50.0974 75.4962C51.1465 76.5272 52.4204 77.0427 53.9192 77.0427H94.835L105.476 87.5ZM100.98 76.8218L96.7084 72.6242H53.9192C53.6694 72.6242 53.4566 72.5378 53.2807 72.365C53.1069 72.1941 53.0199 71.9859 53.0199 71.7405V38.1594C53.0199 37.9139 53.1069 37.7048 53.2807 37.532C53.4566 37.3611 53.6694 37.2757 53.9192 37.2757H100.081C100.33 37.2757 100.542 37.3611 100.716 37.532C100.892 37.7048 100.98 37.9139 100.98 38.1594V76.8218ZM100.98 38.1594V71.7405C100.98 71.9859 100.98 72.1941 100.98 72.365C100.98 72.5378 100.98 72.6242 100.98 72.6242V76.8218V38.1594Z" fill="#242C31"/>
<rect x="51.8096" y="35" width="17.5238" height="19.2857" fill="#242C31"/>
<mask id="mask0_26_156" style="mask-type:alpha" maskUnits="userSpaceOnUse" x="8" y="7" width="69" height="68">
<rect x="8" y="7.14285" width="69" height="67.5" fill="#D9D9D9"/>
</mask>
<g mask="url(#mask0_26_156)">
<path d="M13.75 69.0179V18.3929C13.75 16.846 14.3135 15.5213 15.4405 14.4188C16.5656 13.3182 17.9187 12.7679 19.5 12.7679H65.5C67.0813 12.7679 68.4354 13.3182 69.5624 14.4188C70.6875 15.5213 71.25 16.846 71.25 18.3929V52.1429C71.25 53.6897 70.6875 55.0144 69.5624 56.1169C68.4354 57.2175 67.0813 57.7679 65.5 57.7679H25.25L13.75 69.0179ZM19.5 55.4475L22.8781 52.1429H65.5V18.3929H19.5V55.4475Z" fill="#242C31"/>
</g>
<mask id="mask1_26_156" style="mask-type:alpha" maskUnits="userSpaceOnUse" x="43" y="27" width="70" height="68">
<rect width="69" height="67.5" transform="matrix(-1 0 0 1 112.048 27.5)" fill="#D9D9D9"/>
</mask>
<g mask="url(#mask1_26_156)">
<path d="M106.298 89.375V38.75C106.298 37.2031 105.734 35.8784 104.607 34.7759C103.482 33.6753 102.129 33.125 100.548 33.125H54.5476C52.9664 33.125 51.6122 33.6753 50.4852 34.7759C49.3601 35.8784 48.7976 37.2031 48.7976 38.75V72.5C48.7976 74.0469 49.3601 75.3716 50.4852 76.4741C51.6122 77.5747 52.9664 78.125 54.5476 78.125H94.7976L106.298 89.375ZM100.548 75.8047L97.1695 72.5H54.5476V38.75H100.548V75.8047Z" fill="#242C31"/>
</g>
</svg>
